<svg xmlns="http://www.w3.org/2000/svg" viewBox="0 0 28.44 28.44"><circle cx="14.22" cy="14.22" r="14.22" transform="translate(-2.09 25.98) rotate(-80.78)" style="fill:#ffd053"/><path d="M21.66,2.08A14.22,14.22,0,0,1,9.68,24a14.15,14.15,0,0,1-7.44-2.1A14.22,14.22,0,1,0,21.66,2.08Z" style="fill:#ffc448"/><path d="M1.93,15.72a13.21,13.21,0,0,1,23.67-8A13.2,13.2,0,1,0,3.69,22.3,13.1,13.1,0,0,1,1.93,15.72Z" style="fill:#ffd77a"/><path d="M8.18,17.13a6.08,6.08,0,0,0,12.08,0Z" style="fill:#71523f"/><path d="M10,20.86a6.06,6.06,0,0,0,4.18,1.66,6,6,0,0,0,4-1.53l-.05-.13A10.08,10.08,0,0,0,10,20.86Z" style="fill:#ff6669"/><path d="M12.26,10.08v0A2.42,2.42,0,0,0,9.88,7.55a2.1,2.1,0,0,0-2,1.58h0a2.08,2.08,0,0,0-2-1.58,2.42,2.42,0,0,0-2.38,2.51v0c0,.29,0,3.2,4.39,5.57h0C12.26,13.28,12.27,10.37,12.26,10.08Z" style="fill:#ff2223"/><path d="M25,10.08v0a2.42,2.42,0,0,0-2.38-2.51,2.1,2.1,0,0,0-2,1.58h0a2.08,2.08,0,0,0-2-1.58,2.42,2.42,0,0,0-2.38,2.51v0c0,.29,0,3.2,4.39,5.57h0C25,13.28,25,10.37,25,10.08Z" style="fill:#ff2223"/></svg>