<svg xmlns="http://www.w3.org/2000/svg" viewBox="0 0 33.43 28.44"><circle cx="16.71" cy="14.22" r="14.22" style="fill:#ffd053"/><path d="M24.15,2.08A14.22,14.22,0,0,1,4.73,21.86,14.22,14.22,0,1,0,24.15,2.08Z" style="fill:#ffc448"/><path d="M4.43,15.72a13.2,13.2,0,0,1,23.66-8A13.2,13.2,0,1,0,6.18,22.3,13.19,13.19,0,0,1,4.43,15.72Z" style="fill:#ffd77a"/><path d="M9,14.45a.6.6,0,0,1-.47-.23.6.6,0,0,1,.1-.85l2.05-1.6L8.6,10.53a.61.61,0,0,1-.21-.83.6.6,0,0,1,.83-.21l2.88,1.69a.64.64,0,0,1,.3.48.62.62,0,0,1-.24.52L9.41,14.32A.58.58,0,0,1,9,14.45Z" style="fill:#2c2c2c"/><path d="M24.38,14.45a.58.58,0,0,1-.37-.13l-2.75-2.14a.64.64,0,0,1-.23-.52.64.64,0,0,1,.3-.48l2.88-1.69a.6.6,0,1,1,.61,1L22.7,11.77l2.05,1.6a.61.61,0,0,1,.11.85A.62.62,0,0,1,24.38,14.45Z" style="fill:#2c2c2c"/><path d="M25.7,13.81c-1.05,6.31.8,8.41.8,8.41a3.74,3.74,0,0,0,6.37-3.93S31.81,15.69,25.7,13.81Z" style="fill:#47c4e9"/><path d="M28.63,23.85a3.75,3.75,0,0,0,4.24-5.56,6.25,6.25,0,0,0-2.42-2.37C32.36,20.44,30.23,22.79,28.63,23.85Z" style="fill:#00bbe9"/><path d="M7.58,13.72c-6.07,2-7.07,4.64-7.07,4.64A3.75,3.75,0,0,0,7,22.15S8.78,20,7.58,13.72Z" style="fill:#47c4e9"/><path d="M.08,21A3.74,3.74,0,0,0,7,22.15a6.29,6.29,0,0,0,1-3.25C4.84,22.71,1.76,21.93.08,21Z" style="fill:#00bbe9"/><path d="M8.57,16.1a8.2,8.2,0,0,0,16.29,0Z" style="fill:#71523f"/><path d="M11.09,21.13a8.19,8.19,0,0,0,11.06.18l-.08-.17C16.6,18.47,11.16,21.1,11.09,21.13Z" style="fill:#ff6669"/></svg>