<svg xmlns="http://www.w3.org/2000/svg" viewBox="0 0 28.44 28.44"><circle cx="14.22" cy="14.22" r="14.22" transform="translate(-2.89 24.79) rotate(-76.72)" style="fill:#ffd053"/><path d="M21.66,2.08A14.22,14.22,0,0,1,9.68,24a14.15,14.15,0,0,1-7.44-2.1A14.22,14.22,0,1,0,21.66,2.08Z" style="fill:#ffc448"/><path d="M1.93,15.72a13.21,13.21,0,0,1,23.67-8A13.2,13.2,0,1,0,3.69,22.3,13.1,13.1,0,0,1,1.93,15.72Z" style="fill:#ffd77a"/><path d="M10,10.77c0,1-.47,1.77-1,1.77s-1.05-.79-1.05-1.77S8.4,9,9,9,10,9.79,10,10.77Z" style="fill:#2c2c2c"/><path d="M20.51,10.77c0,1-.47,1.77-1.05,1.77s-1.05-.79-1.05-1.77S18.88,9,19.46,9,20.51,9.79,20.51,10.77Z" style="fill:#2c2c2c"/><ellipse cx="14.22" cy="18.21" rx="2.57" ry="4.35" style="fill:#71523f"/><path d="M16.39,20.54a3.94,3.94,0,0,0-4.28.14c.46,1.14,1.23,1.88,2.11,1.88S15.93,21.76,16.39,20.54Z" style="fill:#ff6669"/></svg>