<svg xmlns="http://www.w3.org/2000/svg" viewBox="0 0 28.44 28.44"><circle cx="14.22" cy="14.22" r="14.22" transform="translate(-2.89 24.79) rotate(-76.72)" style="fill:#ffd053"/><path d="M21.66,2.08A14.22,14.22,0,0,1,9.68,24a14.15,14.15,0,0,1-7.44-2.1A14.22,14.22,0,1,0,21.66,2.08Z" style="fill:#ffc448"/><path d="M1.93,15.72a13.21,13.21,0,0,1,23.67-8A13.2,13.2,0,1,0,3.69,22.3,13.1,13.1,0,0,1,1.93,15.72Z" style="fill:#ffd77a"/><path d="M10,10.77c0,1-.47,1.77-1,1.77s-1.05-.79-1.05-1.77S8.4,9,9,9,10,9.79,10,10.77Z" style="fill:#2c2c2c"/><path d="M20.51,10.77c0,1-.47,1.77-1.05,1.77s-1.05-.79-1.05-1.77S18.88,9,19.46,9,20.51,9.79,20.51,10.77Z" style="fill:#2c2c2c"/><path d="M22.62,7.79l-.45-.13c-.32-.09-.62-.17-.91-.27a8.83,8.83,0,0,1-1.2-.51A7.19,7.19,0,0,1,19,6.17a9.27,9.27,0,0,1-1-.94.06.06,0,0,0-.07,0,.05.05,0,0,0,0,.06,2.8,2.8,0,0,0,.56,1.45,3.49,3.49,0,0,0,1.2,1,3.73,3.73,0,0,0,1.45.42h.06a3.11,3.11,0,0,0,1.52-.27,0,0,0,0,0,0-.06A.07.07,0,0,0,22.62,7.79Z" style="fill:#3f3e40"/><path d="M5.82,7.79l.45-.13c.32-.09.62-.17.91-.27a8.83,8.83,0,0,0,1.2-.51,7.19,7.19,0,0,0,1.08-.71,9.27,9.27,0,0,0,1-.94.06.06,0,0,1,.07,0,.07.07,0,0,1,0,.06A2.8,2.8,0,0,1,10,6.73a3.49,3.49,0,0,1-1.2,1,3.73,3.73,0,0,1-1.45.42H7.33A3.11,3.11,0,0,1,5.81,7.9a0,0,0,0,1,0-.06A.07.07,0,0,1,5.82,7.79Z" style="fill:#3f3e40"/><path d="M17.22,16.38a4.46,4.46,0,0,0-3-1.08,4.72,4.72,0,0,0-3,1.08,4.08,4.08,0,0,0-1,1.24,3.34,3.34,0,0,0-.39,1.49.27.27,0,0,0,.18.26.27.27,0,0,0,.31-.09,6,6,0,0,1,.85-.92,4.35,4.35,0,0,1,1-.63,4.7,4.7,0,0,1,2.09-.51,4.33,4.33,0,0,1,2.07.49,5.48,5.48,0,0,1,1.8,1.57.27.27,0,0,0,.22.11l.09,0a.27.27,0,0,0,.18-.26A3.76,3.76,0,0,0,17.22,16.38Z" style="fill:#654735"/><path d="M20.71,13.45C16.5,18.27,17,21,17,21a3.75,3.75,0,1,0,7.49,0S24.92,18.27,20.71,13.45Z" style="fill:#47c4e9"/><path d="M17.93,23.54A3.75,3.75,0,0,0,24.46,21a6.24,6.24,0,0,0-.82-3.29C22.9,22.6,19.85,23.48,17.93,23.54Z" style="fill:#00bbe9"/></svg>