<svg xmlns="http://www.w3.org/2000/svg" viewBox="0 0 28.44 28.44"><circle cx="14.22" cy="14.22" r="14.22" transform="translate(-2.09 25.98) rotate(-80.78)" style="fill:#ff6d15"/><path d="M21.66,2.08A14.22,14.22,0,0,1,9.68,24a14.15,14.15,0,0,1-7.44-2.1A14.22,14.22,0,1,0,21.66,2.08Z" style="fill:#ff6412"/><path d="M1.93,15.72a13.21,13.21,0,0,1,23.67-8A13.2,13.2,0,1,0,3.69,22.3,13.1,13.1,0,0,1,1.93,15.72Z" style="fill:#ff8249"/><ellipse cx="8.98" cy="11.57" rx="1.05" ry="1.77" style="fill:#2c2c2c"/><path d="M20.51,11.57c0,1-.47,1.77-1.05,1.77s-1.05-.79-1.05-1.77.47-1.76,1.05-1.76S20.51,10.6,20.51,11.57Z" style="fill:#2c2c2c"/><path d="M20.05,20.54a.47.47,0,0,0,.76-.51A7.13,7.13,0,0,0,7.63,19.9a.47.47,0,0,0,.76.51C10.47,18.4,14.89,15.53,20.05,20.54Z" style="fill:#654735"/><rect x="9.19" y="5.75" width="1.35" height="4.5" transform="translate(-2.77 9.32) rotate(-45)" style="fill:#2c2c2c"/><rect x="17.9" y="5.75" width="1.35" height="4.5" transform="translate(11.1 -10.79) rotate(45)" style="fill:#2c2c2c"/></svg>