<svg xmlns="http://www.w3.org/2000/svg" viewBox="0 0 1183.48 331.73"><path d="M589.17,157a2.18,2.18,0,0,0,.17-.82l0-38.15h-.16Z" style="fill:none"/><path d="M1145.27,150.77a32.86,32.86,0,0,0-21.8,8.68,2.21,2.21,0,0,1-3.63-1.7l0-69a22.72,22.72,0,0,0-22.73-22.71l-71.41,0a2.2,2.2,0,0,1-1.58-3.74c6.83-6.59,11-15,11-24.23C1035,17.06,1013.5,0,987,0s-48,17.12-48,38.21c0,9.21,4.14,17.63,11,24.21a2.2,2.2,0,0,1-1.57,3.75l-91.92.06a2.24,2.24,0,0,0-1.28.41V118h-.4l0,39.74a2.21,2.21,0,0,0,3.63,1.7,32.86,32.86,0,0,1,21.8-8.68c21.09,0,38.19,21.47,38.21,48s-17.06,48-38.14,48a32.92,32.92,0,0,1-21.82-8.65,2.2,2.2,0,0,0-3.62,1.7l.06,89.49a2.29,2.29,0,0,1-.3,1.1,2.23,2.23,0,0,0,2,1.3l95.87-.07a2.2,2.2,0,0,0,1.34-4c-9-6.93-14.69-16.66-14.7-27.44,0-21.09,21.47-38.19,48-38.21s48,17.06,48,38.14c0,10.79-5.62,20.52-14.66,27.47a2.2,2.2,0,0,0,1.34,3.95l95.87-.06a2.21,2.21,0,0,0,2.22-2.22l-.06-89.49a2.2,2.2,0,0,1,3.62-1.7,32.92,32.92,0,0,0,21.82,8.65c21.08,0,38.16-21.52,38.14-48S1166.36,150.76,1145.27,150.77Z" style="fill:#219d3d"/><path d="M854.9,239.84a2.2,2.2,0,0,1,3.62-1.7,32.92,32.92,0,0,0,21.82,8.65c21.08,0,38.16-21.52,38.14-48s-17.12-48-38.21-48a32.86,32.86,0,0,0-21.8,8.68,2.21,2.21,0,0,1-3.63-1.7l0-39.74h.4V66H760a2.19,2.19,0,0,1-.92-3.64c6.83-6.59,10.95-15,10.95-24.23C770,17.06,748.5,0,722,0s-48,17.12-48,38.21c0,9.21,4.14,17.63,11,24.21A2.18,2.18,0,0,1,684.2,66h-95v52h.1l0,38.15a2.18,2.18,0,0,1-.17.82v.77a2.21,2.21,0,0,0,3.63,1.7,32.88,32.88,0,0,1,21.81-8.68c21.08,0,38.18,21.47,38.2,48s-17.06,48-38.14,48a32.92,32.92,0,0,1-21.82-8.65,2.2,2.2,0,0,0-3.62,1.7V241a2.17,2.17,0,0,1,.17.81l.06,87.73a2.21,2.21,0,0,0,2.21,2.21l95.87-.07a2.2,2.2,0,0,0,1.34-4c-9-6.93-14.69-16.66-14.7-27.44,0-21.09,21.47-38.19,48-38.21s48,17.06,48,38.14c0,10.79-5.62,20.52-14.66,27.47a2.2,2.2,0,0,0,1.34,3.95l95.87-.06a2.22,2.22,0,0,0,1.92-1.12,2.29,2.29,0,0,0,.3-1.1Z" style="fill:#ce1d2c"/><path d="M592.85,238.14a32.92,32.92,0,0,0,21.82,8.65c21.08,0,38.16-21.52,38.14-48s-17.12-48-38.2-48a32.88,32.88,0,0,0-21.81,8.68,2.21,2.21,0,0,1-3.63-1.7V157l0-39h.06V66H494.32a2.19,2.19,0,0,1-.92-3.64c6.84-6.59,11-15,11-24.23,0-21.08-21.52-38.16-48-38.14s-48,17.12-48,38.21c0,9.21,4.13,17.63,11,24.21a2.19,2.19,0,0,1-.78,3.59H323.21v0h1.42a2.21,2.21,0,0,1,2.21,2.21l.06,89.49a2.21,2.21,0,0,0,3.63,1.7,32.88,32.88,0,0,1,21.8-8.68c21.09,0,38.19,21.47,38.21,48s-17.06,48-38.14,48a32.92,32.92,0,0,1-21.82-8.65,2.2,2.2,0,0,0-3.62,1.7l.06,89.5a2.21,2.21,0,0,1-1.94,2.18,2.26,2.26,0,0,0,.93.21l95.87-.07a2.21,2.21,0,0,0,1.34-4c-9.06-6.93-14.7-16.66-14.71-27.44,0-21.09,21.47-38.19,48-38.21s48,17.06,48,38.14c0,10.79-5.62,20.52-14.67,27.47a2.2,2.2,0,0,0,1.35,3.95l95.87-.06a2.21,2.21,0,0,0,2.21-2.22L589.23,241v-1.14A2.2,2.2,0,0,1,592.85,238.14Z" style="fill:#0a4eab"/><path d="M327,329.34l-.06-89.5a2.2,2.2,0,0,1,3.62-1.7,32.92,32.92,0,0,0,21.82,8.65c21.08,0,38.16-21.52,38.14-48s-17.12-48-38.21-48a32.88,32.88,0,0,0-21.8,8.68,2.21,2.21,0,0,1-3.63-1.7l-.06-89.49a2.21,2.21,0,0,0-2.21-2.21h-1.42l-90.5.06a2.2,2.2,0,0,1-1.58-3.74c6.83-6.59,11-15,11-24.23C242.06,17.06,220.56,0,194,0s-48,17.12-48,38.21c0,9.21,4.14,17.63,11,24.22a2.2,2.2,0,0,1-1.58,3.74l-75.93,0A18.2,18.2,0,0,0,61.35,84.43l0,71.73a2.21,2.21,0,0,1-3.58,1.73A32.27,32.27,0,0,0,38.14,151C17.06,151,0,172.51,0,199s17.12,48,38.21,48a32.32,32.32,0,0,0,19.67-6.92,2.2,2.2,0,0,1,3.58,1.71l.06,87.73a2.21,2.21,0,0,0,2.21,2.21l95.87-.07a2.2,2.2,0,0,0,1.34-4c-9.05-6.93-14.69-16.66-14.7-27.44,0-21.09,21.47-38.19,48-38.21s48,17.06,48,38.14c0,10.79-5.62,20.52-14.66,27.47a2.2,2.2,0,0,0,1.35,3.95l95.87-.06.27,0A2.21,2.21,0,0,0,327,329.34Z" style="fill:#f9bf21"/><path d="M234.27,213.79H214.52V172.71H176v41.08H156.27V117.94H176v38.84h38.51V117.94h19.75Z" style="fill:#fff"/><path d="M498.36,168q0,14.15-5,24.81A37.62,37.62,0,0,1,479,209.31a42.35,42.35,0,0,1-42.63.07A38,38,0,0,1,421.93,193a56.07,56.07,0,0,1-5.2-24.46v-4.74q0-14.15,5.1-24.91a38,38,0,0,1,14.42-16.53,42.24,42.24,0,0,1,42.59,0,38,38,0,0,1,14.42,16.53q5.1,10.76,5.1,24.85Zm-20-4.35q0-15.08-5.4-22.91T457.54,133q-9.93,0-15.34,7.73t-5.46,22.68V168q0,14.67,5.4,22.77t15.53,8.1q9.94,0,15.28-7.8t5.4-22.74Z" style="fill:#fff"/><path d="M712.12,197.92h41.93v15.87H692.37V117.94h19.75Z" style="fill:#fff"/><path d="M1005.49,194H970.86l-6.58,19.75h-21L979,117.94h18.3l35.88,95.85h-21Zm-29.3-16h24l-12-35.88Z" style="fill:#fff"/></svg>